<svg xmlns="http://www.w3.org/2000/svg" width="520" height="130" viewBox="0 0 520 130" role="img" aria-label="ScamSignal"><defs><linearGradient id="g" x1="0" x2="1"><stop stop-color="#071a32"/><stop offset="1" stop-color="#0c2b50"/></linearGradient></defs><g transform="translate(17 19) scale(.72)"><path d="M58 7 100 24v36c0 30-17 49-42 62C33 109 16 90 16 60V24z" fill="url(#g)" stroke="#fff" stroke-width="4"/><path d="M58 21 88 33v27c0 22-12 37-30 47C40 97 28 82 28 60V33z" fill="none" stroke="#ef1826" stroke-width="5"/><circle cx="58" cy="52" r="7" fill="#fff"/><path d="M58 59v25m-13-37c4-10 22-10 26 0m-34-7c10-21 32-21 42 0" fill="none" stroke="#ef1826" stroke-width="5" stroke-linecap="round"/></g><text x="104" y="84" font-family="Arial,Helvetica,sans-serif" font-weight="800" font-size="58" fill="#08182d">Scam</text><text x="264" y="84" font-family="Arial,Helvetica,sans-serif" font-weight="800" font-size="58" fill="#ef1826">Signal</text></svg>